PathFileType	4	(X/Y/Z)	 s06c0202.trc
DataRate	CameraRate	NumFrames	NumMarkers	Units	OrigDataRate	OrigDataStartFrame	OrigNumFrames
200	200	4	48	mm	200	1251	2000
Frame#	Time	racr			lacr			c7			jug			rlel			rdr			llel			ldr			s2			lic			ric			lasi			rasi			rpsi			lpsi			rgt			lgt			rth1			rth2			rth3			rth4			rlfc			rmfc			rsh1			rsh2			rsh3			rsh4			rlmal			rcal			rtoe			rmt5			lth1			lth2			lth4			lth3			llfc			lmfc			llmal			lcal			lmt5			lsh1			lsh2			lsh3			lsh4			ltoe			SBIKE			LBIKE			RBIKE			
		X1	Y1	Z1	X2	Y2	Z2	X3	Y3	Z3	X4	Y4	Z4	X5	Y5	Z5	X6	Y6	Z6	X7	Y7	Z7	X8	Y8	Z8	X9	Y9	Z9	X10	Y10	Z10	X11	Y11	Z11	X12	Y12	Z12	X13	Y13	Z13	X14	Y14	Z14	X15	Y15	Z15	X16	Y16	Z16	X17	Y17	Z17	X18	Y18	Z18	X19	Y19	Z19	X20	Y20	Z20	X21	Y21	Z21	X22	Y22	Z22	X23	Y23	Z23	X24	Y24	Z24	X25	Y25	Z25	X26	Y26	Z26	X27	Y27	Z27	X28	Y28	Z28	X29	Y29	Z29	X30	Y30	Z30	X31	Y31	Z31	X32	Y32	Z32	X33	Y33	Z33	X34	Y34	Z34	X35	Y35	Z35	X36	Y36	Z36	X37	Y37	Z37	X38	Y38	Z38	X39	Y39	Z39	X40	Y40	Z40	X41	Y41	Z41	X42	Y42	Z42	X43	Y43	Z43	X44	Y44	Z44	X45	Y45	Z45	X46	Y46	Z46	X47	Y47	Z47	X48	Y48	Z48	
1251	6.2550	556.471910	1202.849367	-75.374436	569.391097	1182.821812	-381.034755	557.167629	1294.448284	-230.525570	523.305125	1128.353414	-225.578822	490.102889	986.119628	75.203298	655.855794	907.221219	-51.269767	458.207047	961.964447	-504.125228	643.312537	915.568220	-393.444242	-6.306781	1145.538841	-198.144418	136.625084	1103.308826	-381.055547	145.151899	1104.695708	-41.764482	154.395137	1050.899253	-341.108516	169.893583	1065.439376	-80.159887	28.719475	1180.151813	-166.622054	26.433136	1179.934665	-226.029292	115.042999	1026.036098	-2.282584	111.708420	1042.763346	-400.065314	211.899039	943.684159	-3.657991	288.885063	896.789132	-14.334765	330.664469	820.879787	-17.860337	309.390367	921.068059	-34.771079	359.225354	724.657642	-41.472648	337.991764	706.120031	-149.554201	268.981470	640.655056	-19.946492	211.564298	579.725713	-44.397707	129.485375	546.965120	-47.180265	224.523614	567.365483	-81.011928	55.179011	511.828453	-51.770734	-9.165357	536.464058	-101.357801	157.425536	315.185023	-93.549836	77.554600	376.789867	-27.227230	168.324443	925.313607	-414.680666	239.374818	875.545907	-407.910206	267.003810	898.689215	-397.308590	276.351203	794.258522	-400.943393	324.796085	685.684803	-381.576184	330.269827	668.879348	-268.405863	245.089291	318.428882	-376.355927	177.246703	273.125806	-328.035694	372.938285	279.277521	-405.752944	305.617595	577.259518	-404.285039	307.759624	492.144958	-384.903583	268.349517	412.594821	-383.057641	332.966569	490.872382	-354.270567	455.935277	305.931512	-347.709907	-202.854398	867.888008	-206.850008	-49.337834	83.812758	-414.443954	-49.166913	79.900118	-16.930736	
1252	6.2600	556.266233	1204.695610	-73.838478	569.672158	1183.300037	-380.061784	557.442038	1295.505815	-229.742329	522.725118	1129.670772	-224.484004	490.356359	986.804933	75.122289	656.067132	907.457920	-51.443059	459.013082	962.396885	-504.008878	644.156834	915.701053	-393.322084	-6.605044	1146.338208	-199.867140	137.551712	1104.554565	-382.164965	144.240427	1106.603920	-43.245944	156.331368	1052.600184	-341.744783	168.603306	1066.510461	-81.023568	28.974800	1181.133313	-168.763188	27.265159	1180.560175	-228.168744	115.047878	1030.222649	-2.752372	112.509284	1041.184853	-400.503992	211.985470	949.204616	-6.558255	290.849872	904.245966	-14.433182	334.236080	829.291176	-17.166986	311.210173	928.863737	-34.475566	364.782644	733.360756	-40.985028	345.396245	715.586106	-148.875923	274.498733	649.416911	-19.853058	216.634799	588.751287	-44.313642	134.355408	556.716090	-47.080447	229.497844	576.302862	-80.917251	59.736099	522.144348	-51.778084	-4.506533	547.061639	-101.377753	161.266261	325.121058	-93.534788	81.659557	387.082771	-27.174890	166.517406	921.831195	-414.938016	236.164165	870.273645	-407.863324	264.323801	892.722423	-397.545709	270.946832	787.855802	-400.302297	317.243357	677.672499	-381.420856	321.576695	660.351701	-268.294781	241.715704	309.530300	-376.424693	173.855101	264.776000	-328.179903	369.634215	269.278245	-405.454426	298.996472	569.117844	-403.485100	302.238210	484.000956	-384.798633	263.806023	404.087567	-382.969667	327.422435	482.997307	-354.131497	452.844327	295.007098	-347.448157	-202.837678	867.909453	-206.895425	-49.319010	83.842995	-414.448397	-49.171570	79.940675	-16.935217	
1253	6.2650	555.774935	1205.925893	-73.175408	570.035353	1183.999863	-378.956017	557.732094	1296.703727	-228.797845	522.057823	1130.954027	-223.389896	490.811709	987.119887	74.686505	656.258037	907.812554	-51.780013	459.840506	963.136129	-503.903256	645.039163	916.117312	-393.438905	-6.524928	1148.077274	-200.957927	138.763333	1105.710958	-383.256411	143.340699	1108.627612	-44.669027	158.286764	1054.104938	-342.399437	167.372585	1067.763988	-81.838880	29.031935	1182.143960	-170.855250	28.044090	1181.146164	-230.402522	115.034602	1034.430106	-3.338784	113.393585	1039.330200	-401.049895	213.944821	955.749271	-5.667454	292.787807	911.819714	-14.429736	337.381129	837.943863	-16.200140	312.952161	936.973579	-34.031953	370.588041	742.157993	-40.553480	354.774257	724.665084	-149.973195	279.773099	658.328503	-19.770537	222.115919	597.913487	-44.180977	139.466623	566.648663	-46.841616	234.931967	585.255713	-80.772807	64.732738	532.503894	-51.476284	0.597433	557.232104	-101.245185	165.797963	334.999110	-93.555980	86.355423	397.137819	-27.183902	164.730455	918.595454	-415.064537	232.980296	865.220706	-407.901260	261.745112	886.933126	-397.588339	265.545216	782.032388	-400.060405	309.311212	669.848712	-381.233821	312.473504	652.074671	-268.687432	237.946331	300.787917	-376.209350	169.911089	256.687922	-327.757268	365.782713	259.447952	-405.218935	292.006921	561.125910	-403.466028	296.254237	476.087365	-384.770513	258.738297	395.701634	-383.034277	321.504851	475.143710	-353.892441	449.194387	284.235749	-347.213514	-202.840344	867.941380	-206.938873	-49.316370	83.865443	-414.436120	-49.155322	79.962363	-16.927940	
1254	6.2700	555.210316	1207.307310	-72.485304	570.342608	1184.865571	-377.878027	558.066635	1297.835765	-227.691611	521.314363	1132.158335	-222.189395	491.006727	987.980477	74.511964	656.511674	908.347468	-51.847343	460.755570	964.290439	-503.636167	645.811619	916.562221	-393.420535	-6.884389	1150.264754	-201.579195	140.224950	1106.748236	-384.199451	140.667276	1110.139935	-44.928649	160.094511	1055.303892	-342.959612	165.285465	1069.011658	-81.427560	29.157977	1183.054260	-173.075673	28.808101	1181.682059	-232.757088	114.853331	1038.876260	-3.874239	114.213387	1037.298590	-401.630652	214.395867	961.890478	-6.271759	294.695772	919.398797	-14.269839	340.658599	846.427852	-15.737029	314.641129	945.162618	-33.353980	376.575120	751.371763	-40.288210	362.569887	733.507634	-151.021442	285.771350	667.241705	-19.756864	227.798590	607.043449	-44.169347	145.179459	575.918528	-46.874411	240.509151	594.395480	-80.811522	70.119651	542.013114	-51.582541	5.952195	567.014366	-101.238884	170.918549	344.629920	-93.693307	91.507129	406.897897	-27.281980	163.039377	915.638843	-415.346818	229.766779	860.344169	-407.983577	259.116563	881.207629	-397.536850	260.525133	775.941440	-399.658527	301.210668	662.507367	-381.346949	303.238931	643.608156	-268.465152	233.570306	292.720230	-376.449489	165.351201	249.880359	-328.652853	361.394051	250.028990	-405.039093	284.788220	553.418536	-404.069870	289.824790	468.620685	-384.935028	253.238770	387.869908	-383.169142	315.208626	468.278969	-354.466292	445.107234	273.584609	-346.842838	-202.821265	867.990964	-206.967733	-49.293936	83.865773	-414.430355	-49.128037	79.961675	-16.944295	
